<?xml version="1.0" encoding="UTF-8"?>
<svg xmlns:xodm="http://www.corel.com/coreldraw/odm/2003" xmlns="http://www.w3.org/2000/svg" xmlns:xlink="http://www.w3.org/1999/xlink" version="1.1" id="Layer_1" x="0px" y="0px" viewBox="0 0 2500 934" style="enable-background:new 0 0 2500 934;" xml:space="preserve">
<style type="text/css">
	.st0{clip-path:url(#SVGID_00000149363195816859883600000004832551974183027874_);}
	.st1{fill:#0A192B;}
	.st2{fill-rule:evenodd;clip-rule:evenodd;fill:#2F7AEA;}
	.st3{fill:#FFFFFF;}
	.st4{fill:#94A6C3;}
	.st5{fill:#FFD923;}
	.st6{fill:#D82122;}
	.st7{fill:none;}
</style>
<g id="Layer_x0020_1">
	<g>
		<defs>
			<rect id="SVGID_1_" x="0.1" y="0" width="2499.8" height="934"></rect>
		</defs>
		<clipPath id="SVGID_00000073716733839561869940000000141421055735371137_">
			<use xlink:href="#SVGID_1_" style="overflow:visible;"></use>
		</clipPath>
		<g style="clip-path:url(#SVGID_00000073716733839561869940000000141421055735371137_);">
			<g>
				<path class="st1" d="M1000,233.5h100v400.3h100V133.4h-100C1045,133.4,1000,178.5,1000,233.5z"></path>
				<path class="st1" d="M1300,633.8h100V433.6c0-55-45-100.1-100-100.1V633.8z"></path>
				<path class="st1" d="M1500,333.6v300.2h100V433.6h100v100.1c0,55,45,100.1,100,100.1V433.6c0-55-45-100.1-100-100.1H1500      L1500,333.6z"></path>
				<path class="st1" d="M2399.9,333.6h-100V233.5c0-55-45-100.1-100-100.1v400.3h-200V433.6h100V333.6h-100c-55,0-100,45-100,100.1      v100.1c0,55,45,100.1,100,100.1h300V433.6h100v100.1c0,55,45,100.1,100,100.1V433.6C2499.9,378.6,2454.9,333.6,2399.9,333.6      L2399.9,333.6z"></path>
				<path class="st1" d="M1300,233.5h100c0-55-45-100.1-100-100.1V233.5z"></path>
				<path class="st2" d="M1155.9,733.9v64.7h-9.2l-36-44.8v44.8H1100v-64.7h9.2l36,45v-45H1155.9z M1359.3,798.5h-38.8v-64.7h37.9      v10.6H1332v16.1h23.6v10.6H1332v16.7h27.3L1359.3,798.5L1359.3,798.5z M1523.9,744.5h21.2v54.1h11.5v-54.1h21.2v-10.6h-53.9      V744.5z M1822.6,733.9h11l-18.7,64.7h-10.8l-15.8-46.8l-15.5,46.8H1762l-19.5-64.7h12.9l13.2,46.1l14.6-46.1h11.4l14.9,46.2      L1822.6,733.9L1822.6,733.9z M2007.8,743.5c-6.3,6.4-9.5,14.3-9.5,23.8c0,9.9,3.2,17.9,9.6,24.1c6.4,6.2,14.5,9.2,24.4,9.2      c9.8,0,17.9-3.1,24.4-9.4c6.5-6.3,9.7-14.3,9.7-23.9c0-9.9-3.2-17.9-9.7-24.1c-6.4-6.2-14.5-9.2-24.4-9.2      C2022.4,733.9,2014.2,737.1,2007.8,743.5L2007.8,743.5z M2016.7,783.5c-4.2-4.3-6.3-9.7-6.3-16.3c0-6.7,2.1-12.1,6.2-16.4      c4.2-4.2,9.4-6.4,15.7-6.4c6.2,0,11.4,2.1,15.6,6.4c4.2,4.3,6.4,9.8,6.4,16.4c0,6.5-2,11.9-6,16.3c-3.9,4.3-9.3,6.5-16,6.5      C2026,790,2020.8,787.8,2016.7,783.5L2016.7,783.5z M2242.5,774.5v24.2H2231V734c3.2,0,6.8,0,10.6-0.1c3.8-0.1,6.9-0.1,9.3-0.1      c15.8,0,23.7,6.7,23.7,20c0,4.9-1.3,9-3.8,12.2c-2.5,3.1-5.5,5.2-8.8,6.3l20.5,26.4h-13.9l-18-24.2H2242.5z M2250.3,744.5      c-0.3,0-0.8,0-1.5,0.1c-0.7,0-1.6,0-2.9,0.1h-3.5v19.2h7.5c3.7,0,6.7-0.9,9-2.7c2.4-1.8,3.5-4.2,3.5-7.3      C2262.5,747.6,2258.4,744.5,2250.3,744.5L2250.3,744.5z M2447.1,798.5h11.5v-33.4l26.7,33.4h14.6l-28.6-34.6l26.9-30.1h-13.8      l-25.8,30.7v-30.7h-11.5L2447.1,798.5L2447.1,798.5z"></path>
				<polygon class="st3" points="232.2,509.6 255.5,333.7 52.8,192.9 238,255.6 281.8,188.5 441.4,89.3 793.6,283.4 811.8,579.6       655.1,797.8 531.1,816.8 595.3,699.3 595.3,586.2 548.6,497.9 501.2,466.5 428.3,541.7 428.3,621.2 371.4,674.5 299.3,683.2       267.2,701.5 214.7,684.7 192.8,605.9 232.2,550.4     "></polygon>
				<path class="st4" d="M555.9,191.4c-38.6-8-80.9-5.8-80.9-5.8s-13.9,64.2-99.9,81C375.8,266.6,488.8,305.3,555.9,191.4z"></path>
				<path class="st4" d="M590.9,773.7c46.7-36.5,81.7-86.8,97.7-143.7c0.7-2.2,7.3-5.8,11.7-8.8c7.3-4.4,14.6-8,16-13.9      c2.9-16.8,4.4-34.3,4.4-51.8c0-6.6-6.6-13.1-13.1-19.7c-5.1-4.4-10.2-9.5-10.2-13.1c-7.3-66.4-37.9-128.4-86.8-173.7l-5.1,5.1      c47.4,44.5,78,105.1,84.6,169.3c0.7,5.8,6.6,11.7,12.4,17.5c5.1,4.4,10.9,10.9,10.9,13.9c0,16.8-1.5,33.6-4.4,50.3      c-0.7,2.9-7.3,5.8-12.4,8.8c-7.3,3.6-13.9,7.3-15.3,13.1c-17.5,62-57.6,116-110.8,151.1c9.5-20.4,39.4-86.8,55.4-120.4l-2.9-108      L530.4,460l-52.5,7.3l-57.6,93.4c0,0,27,34.3-10.9,74.4c-37.2,39.4-66.4,48.2-66.4,48.2l-27-14.6c8-10.2,24.1-25.5,36.5-35.8      c21.1-17.5,42.3-19,42.3-37.9c0.7-39.4-41.6-28.5-41.6-28.5l-15.3,14.6l-6.6,54l-32.1,40.1l-3.6-0.7l-52.5-11.7      c0,0,32.1-16.8,37.2-35.8c5.1-18.2-10.2-78.8-10.9-82.5c0.7,0.7,15.3,13.1,21.9,33.6c11.7-32.1,27-62.8,31.4-65.7      c4.4-2.9,63.4-34.3,63.4-34.3L366.3,530l14.6-8l35-86.1c0,0,34.3-16.8,59.8-16.8c45.9-0.7,113.7-56.9,83.1-157.6      c8.8,3.6,160.4,79.5,186.7,228.4C765.2,604.4,700.3,711.7,590.9,773.7L590.9,773.7z"></path>
				<path class="st1" d="M417.4,207.5c16.8-19.7,10.2-48.9,10.2-48.9l-48.8,72.2C378,230.8,396.2,231.6,417.4,207.5L417.4,207.5z"></path>
				<path class="st1" d="M253.3,602.2l5.8-29.2c0,0-24.1,42.3-26.2,48.2c-2.2,6.6,1.5,18.2,10.9,17.5c9.5-0.7,21.1-14.6,21.1-24.8      C265,600.8,253.3,602.2,253.3,602.2L253.3,602.2z"></path>
				<path class="st1" d="M686.4,138.2c0,0,36.5,1.5,74.4,5.8c-85.3-67.1-166.2-86.8-231.9-86.8c-90.4,0-151.7,37.2-155.3,39.4      l28.4-45.2c0,0-113.7-10.9-153.8,109.5C238,135.2,228.5,98,228.5,98s-59.1,51.8-31.4,137.9c-67.8-24.8-164.8-59.1-168.4-59.8      c-5.1-0.7-6.6,1.5-6.6,1.5s-1.5,2.2,2.9,5.8c8,6.6,161.1,119.7,194.7,141.6c-7.3,26.3-7.3,38.7,0,51.1      c10.2,16.8,10.9,25.5,9.5,37.9c-1.5,12.4-14.6,119.7-17.5,132.8c-2.9,13.1-33.5,59.8-32.1,73.7c1.5,13.9,20.4,73,37.2,79.5      c12.4,4.4,43,13.9,63.4,13.9c7.3,0,13.9-1.5,16.8-4.4c12.4-10.9,16-13.1,24.8-13.1c0.7,0,1.5,0,2.2,0c3.6,0,8,0.7,13.1,0.7      c11.7,0,27-2.2,37.9-12.4c16-16,43.7-37.9,52.5-48.2c10.9-13.9,16.8-32.8,13.9-51.8c-2.2-17.5,7.3-32.8,18.2-48.2      c13.9-18.2,39.4-51.1,39.4-51.1c50.3,37.9,81.7,95.6,81.7,159.8c0,113.8-99.2,205.8-221.7,205.8c-19,0-37.2-2.2-55.4-6.6      c56.1,19.7,103.5,26.3,142.2,26.3c82.4,0,126.1-29.9,126.1-29.9s-15.3,19.7-40.1,42.3c0.7,0,0.7,0,0.7,0      c136.3-19,202.7-131.3,202.7-131.3s-5.1,36.5-11.7,61.3c181.5-136.5,150.9-307.2,150.2-313c1.5,2.2,19.7,24.1,29.2,35.8      C932.1,235.2,686.4,138.2,686.4,138.2L686.4,138.2z M407.2,618.3c-2.9,3.6-15.3,14.6-24.1,22.6c-8.8,8-18.2,16.1-25.5,23.3      c-2.9,2.9-8.7,4.4-17.5,4.4c-2.9,0-5.8,0-8,0c-1.5,0-2.9,0-4.4,0c-1.5,0-2.2,0-2.9,0c-2.2,0-4.4,0-6.6,0      c10.9-14.6,43-48.2,54-55.5c13.1-8.8,19.7-17.5,11.7-32.8c-8-15.3-29.2-11.7-29.2-11.7s12.4-5.1,23.3-5.1      c-13.9-3.6-31.4,0-39.4,8c-8.8,8-7.3,36.5-10.9,54.7c-3.6,19-16,28.5-35,46c-10.2,9.5-17.5,12.4-23.3,12.4      c-12.4-2.2-27-5.8-37.2-9.5c-7.3-9.5-18.2-40.9-21.1-54c2.2-7.3,10.9-22.6,15.3-31.4c8.8-16.8,13.9-26.3,15.3-35      c2.9-12.4,12.4-89,16-121.1c9.5,12.4,22.6,32.8,19.7,46c21.1-29.9,5.8-59.1-1.5-70.8c-6.6-11.7-15.3-35-8-59.8      c7.3-24.8,33.5-93.4,33.5-93.4s8.7,15.3,21.1,12.4c12.4-2.9,112.3-153.2,112.3-153.2s27,59.1-1.5,102.2      c-29.2,43.1-57.6,51.1-57.6,51.1s40.1,7.3,77.3-19.7c15.3,35.8,29.9,73,30.6,78.1c-2.2,5.1-31.4,75.2-34.3,79.5      c-1.5,1.5-11.7,4.4-19,5.8c-12.4,3.6-19.7,5.8-22.6,8c-5.1,4.4-28.4,68.6-39.4,100c-13.1,3.6-26.2,10.9-35.7,25.5      c5.1-3.7,21.1-5.8,32.8-7.3c10.2-0.7,41.6,16.1,49.6,47.4c0,0.7,0,0.7,0,1.5C416.6,598.6,413,609.5,407.2,618.3L407.2,618.3z       M338.6,627.1c6.6-9.5,5.8-25.5,6.6-30.6c0.7-5.1,2.2-14.6,8-16c5.8-1.5,19.7,0.7,19.7,10.9c0,9.5-10.2,11.7-17.5,18.2      C350.3,614.7,340.1,625.6,338.6,627.1L338.6,627.1z M629.5,487.7c7.3-37.2,8-69.3,5.8-95.6c28.4,37.9,45.9,83.9,51,131.3      c0.7,5.8,6.6,11.7,12.4,17.5c5.1,4.4,10.9,10.2,10.9,13.9c0,16.8-1.5,33.6-4.4,50.4c-0.7,2.2-7.3,5.8-12.4,8.8      c-7.3,3.6-13.9,7.3-15.3,13.1c-16,56.2-50.3,105.8-96.3,140.8C649.2,697.1,682,580.4,629.5,487.7L629.5,487.7z M583.6,774.5      c47.4-36.5,83.8-87.6,99.9-145.2c0.7-2.2,7.3-5.8,11.7-8.8c7.3-3.6,14.6-8,16-13.9c2.9-16.8,4.4-34.3,4.4-51.8      c0-6.6-6.6-13.1-13.1-19.7c-3.6-4.4-9.5-9.5-9.5-13.1c-5.8-53.3-27-103.6-59.8-145.2c-14.6-87.6-72.9-114.6-74.4-115.3      c1.5,2.2,39.4,56.9,13.1,121.1c-27,64.9-96.2,54.7-102.1,55.5c-5.8,0-28.4,29.2-56.9,83.2c-3.6-1.5-19-5.1-36.5-2.2      c13.1-36.5,32.8-88.3,36.5-92.7c1.5-1.5,12.4-4.4,19.7-6.6c13.9-3.6,20.4-5.8,22.6-8.8c1.5-2.2,8.7-19,16-36.5      c6.6,0,23.3-1.5,24.8-2.2c1.5-1.5,15.3-37.2,15.3-41.6c0-3.6-28.4-74.4-39.4-101.4c5.1-5.8,10.2-13.1,15.3-21.2      c149.5,16,266.1,143,266.1,297C753.5,623.4,684.2,726.3,583.6,774.5L583.6,774.5z"></path>
				<path class="st1" d="M389.7,380.4c13.9-16,6.6-46-19-51.1c6.6-15.3,16-46,16-46s-74.4,116.7-80.9,118.9      c-6.6,2.2-13.1-23.3-13.1-23.3c-13.9,53.3,23.3,60.6,27.7,43.8C340.8,417.6,375.8,395.7,389.7,380.4L389.7,380.4z"></path>
				<path class="st5" d="M326.2,408.9l37.9-64.9c0,0,21.9,10.9,10.9,28.5C361.2,392.8,326.2,408.9,326.2,408.9L326.2,408.9z"></path>
				<path class="st6" d="M795.1,709.5c-10.9,14.6-23.3,29.9-37.9,44.5c94.1-181,4.4-346.6,0.7-353.2c6.6,6.6,13.1,13.9,19,20.4      C849,501.6,857.8,622,795.1,709.5z"></path>
				<path class="st6" d="M882.5,476.7c-32.8-88.3-79.5-163.5-182.3-231.3c-99.2-65.7-205.6-60.6-211.4-59.8c-0.7,0-1.5,0-1.5,0      c3.6-1.5,7.3-2.2,10.9-2.9c22.6-7.3,51.8-13.1,80.9-16.8c77.3-11,155.3,15.3,208.5,71.5c0.7,0.7,0.7,0.7,1.5,1.5      C849.7,303.1,881.1,383.3,882.5,476.7L882.5,476.7z"></path>
				<path class="st6" d="M676.9,115.5c-108.6-20.4-178.6-10.2-228.9,8.8c-1.5-5.8-6.6-17.5-10.9-27c-15.3,18.2-31.4,40.1-41.6,54      c-27.7,19-39.4,37.2-39.4,37.2c16-54.7,62.7-95.6,119.6-105.8c16-2.9,33.5-4.4,52.5-4.4C578.5,79.1,628.8,91.5,676.9,115.5z"></path>
				<path class="st6" d="M275.2,255.7c-85.3-2.9-56.9-102.2-55.4-108C219.8,148.4,225.6,225.7,275.2,255.7z"></path>
				<path class="st6" d="M359,76.9c-65.6,39.4-52.5,133.5-52.5,133.5C243.8,114.8,353.9,79.1,359,76.9z"></path>
				<path class="st3" d="M251.1,281.9c4.4,3.7,8.7,10.2,3.6,19.7c-2.9,5.1-7.3,4.4-13.9,1.5c-8.7-4.4-61.2-35-108.6-66.4      c54,19,108.6,39.4,117.4,43.8C249.7,280.5,250.4,281.2,251.1,281.9z"></path>
			</g>
		</g>
	</g>
	<polygon class="st7" points="0.1,934 2499.9,934 2499.9,0 0.1,0  "></polygon>
</g>
</svg>
