<?xml version="1.0" encoding="UTF-8"?>
<svg xmlns:xodm="http://www.corel.com/coreldraw/odm/2003" xmlns="http://www.w3.org/2000/svg" xmlns:xlink="http://www.w3.org/1999/xlink" version="1.1" id="Layer_1" x="0px" y="0px" viewBox="0 0 2500 556" style="enable-background:new 0 0 2500 556;" xml:space="preserve">
<style type="text/css">
	.st0{fill-rule:evenodd;clip-rule:evenodd;}
	.st1{fill-rule:evenodd;clip-rule:evenodd;fill:#00D395;}
</style>
<g id="Layer_x0020_1">
	<g id="_2347567817792">
		<path class="st0" d="M2447,317c0-33-19-57-49-57s-49,24-49,57s19,57,49,57S2447,350,2447,317z M2446,238v-85c0-6,4-11,9-12l45-12    v287.9h-50v-25c-13,18-35,29-64,29c-58,0-92-47-92-105s34-105,92-105c28,0,49,12,59,26L2446,238z M2137.1,217v25c9-17,30-29,60-29    c48,0,74,32,74,80v125h-54V299c0-23-10-39-34-39c-26,0-41,17-41,44v115h-54V218h50L2137.1,217z M1960.2,421.9c-59,0-91-25-91-90    V217h54v116c0,28,13,41,37,41s37-13,37-41V217h54v115C2051.2,397,2019.2,421.9,1960.2,421.9z M1689.3,317c0,36,22,57,51,57    s51-21,51-57s-22-57-51-57S1689.3,281,1689.3,317z M1740.3,421.9c-64,0-105-48-105-105s41-105,105-105c64,0,105,48,105,105    S1804.3,421.9,1740.3,421.9z M1469.4,317c0,33,19,57,49,57c30,0,49-25,49-57c0-33-19-57-49-57C1488.4,260,1469.4,284,1469.4,317z     M1471.4,396v83c0,6-4,11-9,12l-45,12V216h50v25c13-18,35-29,64-29c58,0,92,47,92,105s-34,105-92,105c-28,0-49-12-59-26H1471.4z     M1255.5,303v114h-54V298c0-22-8-39-32-39c-25,0-39,16-39,43v115h-54V216h50v25c9-17,29-29,58-29c27,0,47,11,58,28    c18-20,38-28,67-28c48,0,73,33,73,80v125h-54V298c0-22-8-39-32-39c-26,0-39,16-39,44H1255.5z M894.6,317c0,36,22,57,51,57    s51-21,51-57s-22-57-51-57S894.6,281,894.6,317z M945.6,421.9c-64,0-105-48-105-105s41-105,105-105s105,48,105,105    S1009.6,421.9,945.6,421.9z M557.8,281c0-85,59-140.9,136.9-140.9c68,0,121,40,131.9,106h-60c-8-34-36-53-72-53c-50,0-78,34-78,88    s28,88,78,88c36,0,64-19,72-53h60c-10,66-64,106-131.9,106C616.8,421.9,557.8,366,557.8,281z"></path>
		<path class="st1" d="M22,433.9c-14-8-22-24-22-40v-91c0-3,1-7,3-10c5-9,17-12,27-7l203.9,119c12,7,19,20,19,34v94c0,4-1,9-3,12    c-7,11-21,14-32,8L23,433.9H22z M326.9,262c12,7,19,20,19,34v189.9c0,6-3,11-8,14l-45,25c-1,0-1,1-2,1v-106c0-14-7-26-19-33    L93,280V161c0-3,1-7,3-10c5-9,17-12,27-7l203.9,119V262z M415.8,121.1c12,7,19,20,19,34v277.9c0,6-3,11-8,14l-42,23V276    c0-14-7-26-19-33l-182.9-110v-113c0-3,1-7,3-10c5-9,17-12,27-7l203.9,119L415.8,121.1z"></path>
	</g>
</g>
</svg>
